<mxfile host="app.diagrams.net" agent="Mozilla/5.0 (Macintosh; Intel Mac OS X 10_15_7) AppleWebKit/537.36 (KHTML, like Gecko) Chrome/134.0.0.0 Safari/537.36" version="26.2.12">
  <diagram name="第 1 页" id="yD7xF3GPz75AvUTeO0UT">
    <mxGraphModel dx="1428" dy="766" grid="1" gridSize="10" guides="1" tooltips="1" connect="1" arrows="1" fold="1" page="1" pageScale="1" pageWidth="827" pageHeight="1169" math="0" shadow="0">
      <root>
        <mxCell id="0" />
        <mxCell id="1" parent="0" />
        <mxCell id="5T5cmZml9k6LkE0Msn1X-8" style="edgeStyle=orthogonalEdgeStyle;rounded=0;orthogonalLoop=1;jettySize=auto;html=1;exitX=1;exitY=0.5;exitDx=0;exitDy=0;entryX=0;entryY=0.5;entryDx=0;entryDy=0;" parent="1" target="5T5cmZml9k6LkE0Msn1X-6" edge="1">
          <mxGeometry relative="1" as="geometry">
            <mxPoint x="50" y="172" as="sourcePoint" />
          </mxGeometry>
        </mxCell>
        <mxCell id="5T5cmZml9k6LkE0Msn1X-18" style="edgeStyle=orthogonalEdgeStyle;rounded=0;orthogonalLoop=1;jettySize=auto;html=1;exitX=0.5;exitY=0;exitDx=0;exitDy=0;entryX=0.5;entryY=1;entryDx=0;entryDy=0;" parent="1" source="5T5cmZml9k6LkE0Msn1X-6" target="5T5cmZml9k6LkE0Msn1X-16" edge="1">
          <mxGeometry relative="1" as="geometry" />
        </mxCell>
        <mxCell id="5T5cmZml9k6LkE0Msn1X-6" value="h&lt;sub&gt;1&lt;/sub&gt;" style="rounded=0;whiteSpace=wrap;html=1;fontFamily=Times New Roman;fontSize=30;fontStyle=2;fillColor=#dae8fc;strokeColor=#82b366;" parent="1" vertex="1">
          <mxGeometry x="130" y="122" width="50" height="100" as="geometry" />
        </mxCell>
        <mxCell id="5T5cmZml9k6LkE0Msn1X-9" style="edgeStyle=orthogonalEdgeStyle;rounded=0;orthogonalLoop=1;jettySize=auto;html=1;exitX=1;exitY=0.5;exitDx=0;exitDy=0;entryX=0;entryY=0.5;entryDx=0;entryDy=0;" parent="1" edge="1">
          <mxGeometry relative="1" as="geometry">
            <mxPoint x="180" y="171.83" as="sourcePoint" />
            <mxPoint x="260" y="171.83" as="targetPoint" />
          </mxGeometry>
        </mxCell>
        <mxCell id="5T5cmZml9k6LkE0Msn1X-17" style="edgeStyle=orthogonalEdgeStyle;rounded=0;orthogonalLoop=1;jettySize=auto;html=1;exitX=0.5;exitY=0;exitDx=0;exitDy=0;entryX=0.5;entryY=1;entryDx=0;entryDy=0;" parent="1" source="5T5cmZml9k6LkE0Msn1X-10" target="5T5cmZml9k6LkE0Msn1X-6" edge="1">
          <mxGeometry relative="1" as="geometry" />
        </mxCell>
        <mxCell id="5T5cmZml9k6LkE0Msn1X-10" value="&lt;i&gt;x&lt;sub&gt;1&lt;/sub&gt;&lt;/i&gt;" style="ellipse;whiteSpace=wrap;html=1;aspect=fixed;fontFamily=Times New Roman;fontSize=30;fillColor=#b3c7e9;strokeColor=#6c8ebf;" parent="1" vertex="1">
          <mxGeometry x="130" y="292" width="50" height="50" as="geometry" />
        </mxCell>
        <mxCell id="CVISXVQ1rCeILexJUnb6-4" style="edgeStyle=orthogonalEdgeStyle;rounded=0;orthogonalLoop=1;jettySize=auto;html=1;exitX=0.5;exitY=0;exitDx=0;exitDy=0;entryX=0.5;entryY=1;entryDx=0;entryDy=0;" parent="1" source="5T5cmZml9k6LkE0Msn1X-12" target="f9mYp44gyk8aZ-Xdl-M6-1" edge="1">
          <mxGeometry relative="1" as="geometry" />
        </mxCell>
        <mxCell id="5T5cmZml9k6LkE0Msn1X-12" value="&lt;i&gt;x&lt;span style=&quot;font-size: 20.8333px;&quot;&gt;&lt;sub&gt;2&lt;/sub&gt;&lt;/span&gt;&lt;/i&gt;" style="ellipse;whiteSpace=wrap;html=1;aspect=fixed;fontFamily=Times New Roman;fontSize=30;fillColor=#B3C7E9;strokeColor=#6c8ebf;" parent="1" vertex="1">
          <mxGeometry x="260" y="292" width="50" height="50" as="geometry" />
        </mxCell>
        <mxCell id="CVISXVQ1rCeILexJUnb6-6" style="edgeStyle=orthogonalEdgeStyle;rounded=0;orthogonalLoop=1;jettySize=auto;html=1;exitX=0.5;exitY=0;exitDx=0;exitDy=0;entryX=0.5;entryY=1;entryDx=0;entryDy=0;" parent="1" source="5T5cmZml9k6LkE0Msn1X-13" target="f9mYp44gyk8aZ-Xdl-M6-4" edge="1">
          <mxGeometry relative="1" as="geometry" />
        </mxCell>
        <mxCell id="5T5cmZml9k6LkE0Msn1X-13" value="&lt;i&gt;x&lt;span style=&quot;font-size: 25px;&quot;&gt;&lt;sub&gt;3&lt;/sub&gt;&lt;/span&gt;&lt;/i&gt;" style="ellipse;whiteSpace=wrap;html=1;aspect=fixed;fontFamily=Times New Roman;fontSize=30;fillColor=#B3C7E9;strokeColor=#6c8ebf;" parent="1" vertex="1">
          <mxGeometry x="390" y="292" width="50" height="50" as="geometry" />
        </mxCell>
        <mxCell id="CVISXVQ1rCeILexJUnb6-8" style="edgeStyle=orthogonalEdgeStyle;rounded=0;orthogonalLoop=1;jettySize=auto;html=1;exitX=0.5;exitY=0;exitDx=0;exitDy=0;entryX=0.5;entryY=1;entryDx=0;entryDy=0;" parent="1" source="5T5cmZml9k6LkE0Msn1X-14" target="f9mYp44gyk8aZ-Xdl-M6-5" edge="1">
          <mxGeometry relative="1" as="geometry" />
        </mxCell>
        <mxCell id="5T5cmZml9k6LkE0Msn1X-14" value="&lt;i&gt;x&lt;span style=&quot;font-size: 25px;&quot;&gt;&lt;sub&gt;4&lt;/sub&gt;&lt;/span&gt;&lt;/i&gt;" style="ellipse;whiteSpace=wrap;html=1;aspect=fixed;fontFamily=Times New Roman;fontSize=30;fillColor=#B3C7E9;strokeColor=#6c8ebf;" parent="1" vertex="1">
          <mxGeometry x="510" y="292" width="50" height="50" as="geometry" />
        </mxCell>
        <mxCell id="5T5cmZml9k6LkE0Msn1X-16" value="&lt;i&gt;O&lt;sub&gt;1&lt;/sub&gt;&lt;/i&gt;" style="ellipse;whiteSpace=wrap;html=1;aspect=fixed;fontFamily=Times New Roman;fontSize=30;fillColor=#fdde98;strokeColor=#9673a6;" parent="1" vertex="1">
          <mxGeometry x="130" y="2" width="50" height="50" as="geometry" />
        </mxCell>
        <mxCell id="5T5cmZml9k6LkE0Msn1X-21" value="V" style="text;html=1;align=center;verticalAlign=middle;whiteSpace=wrap;rounded=0;fontFamily=Times New Roman;fontSize=20;fontStyle=2" parent="1" vertex="1">
          <mxGeometry x="110" y="72" width="60" height="30" as="geometry" />
        </mxCell>
        <mxCell id="5T5cmZml9k6LkE0Msn1X-22" value="U" style="text;html=1;align=center;verticalAlign=middle;whiteSpace=wrap;rounded=0;fontFamily=Times New Roman;fontSize=20;fontStyle=2" parent="1" vertex="1">
          <mxGeometry x="110" y="252" width="60" height="30" as="geometry" />
        </mxCell>
        <mxCell id="f9mYp44gyk8aZ-Xdl-M6-6" style="edgeStyle=orthogonalEdgeStyle;rounded=0;orthogonalLoop=1;jettySize=auto;html=1;exitX=1;exitY=0.5;exitDx=0;exitDy=0;entryX=0;entryY=0.5;entryDx=0;entryDy=0;" parent="1" source="f9mYp44gyk8aZ-Xdl-M6-1" target="f9mYp44gyk8aZ-Xdl-M6-4" edge="1">
          <mxGeometry relative="1" as="geometry" />
        </mxCell>
        <mxCell id="CVISXVQ1rCeILexJUnb6-5" style="edgeStyle=orthogonalEdgeStyle;rounded=0;orthogonalLoop=1;jettySize=auto;html=1;exitX=0.5;exitY=0;exitDx=0;exitDy=0;entryX=0.5;entryY=1;entryDx=0;entryDy=0;" parent="1" source="f9mYp44gyk8aZ-Xdl-M6-1" target="CVISXVQ1rCeILexJUnb6-1" edge="1">
          <mxGeometry relative="1" as="geometry" />
        </mxCell>
        <mxCell id="f9mYp44gyk8aZ-Xdl-M6-1" value="h&lt;sub style=&quot;&quot;&gt;&lt;font style=&quot;font-size: 25px;&quot;&gt;2&lt;/font&gt;&lt;/sub&gt;" style="rounded=0;whiteSpace=wrap;html=1;fontFamily=Times New Roman;fontSize=30;fontStyle=2;fillColor=#DAE8FC;strokeColor=#82b366;" parent="1" vertex="1">
          <mxGeometry x="260" y="122" width="50" height="100" as="geometry" />
        </mxCell>
        <mxCell id="f9mYp44gyk8aZ-Xdl-M6-7" style="edgeStyle=orthogonalEdgeStyle;rounded=0;orthogonalLoop=1;jettySize=auto;html=1;exitX=1;exitY=0.5;exitDx=0;exitDy=0;entryX=0;entryY=0.5;entryDx=0;entryDy=0;" parent="1" source="f9mYp44gyk8aZ-Xdl-M6-4" target="f9mYp44gyk8aZ-Xdl-M6-5" edge="1">
          <mxGeometry relative="1" as="geometry" />
        </mxCell>
        <mxCell id="CVISXVQ1rCeILexJUnb6-7" style="edgeStyle=orthogonalEdgeStyle;rounded=0;orthogonalLoop=1;jettySize=auto;html=1;exitX=0.5;exitY=0;exitDx=0;exitDy=0;" parent="1" source="f9mYp44gyk8aZ-Xdl-M6-4" target="CVISXVQ1rCeILexJUnb6-2" edge="1">
          <mxGeometry relative="1" as="geometry" />
        </mxCell>
        <mxCell id="f9mYp44gyk8aZ-Xdl-M6-4" value="h&lt;sub style=&quot;&quot;&gt;&lt;font style=&quot;font-size: 25px;&quot;&gt;3&lt;/font&gt;&lt;/sub&gt;" style="rounded=0;whiteSpace=wrap;html=1;fontFamily=Times New Roman;fontSize=30;fontStyle=2;fillColor=#DAE8FC;strokeColor=#82b366;" parent="1" vertex="1">
          <mxGeometry x="390" y="122" width="50" height="100" as="geometry" />
        </mxCell>
        <mxCell id="CVISXVQ1rCeILexJUnb6-9" style="edgeStyle=orthogonalEdgeStyle;rounded=0;orthogonalLoop=1;jettySize=auto;html=1;exitX=0.5;exitY=0;exitDx=0;exitDy=0;entryX=0.5;entryY=1;entryDx=0;entryDy=0;" parent="1" source="f9mYp44gyk8aZ-Xdl-M6-5" target="CVISXVQ1rCeILexJUnb6-3" edge="1">
          <mxGeometry relative="1" as="geometry" />
        </mxCell>
        <mxCell id="f9mYp44gyk8aZ-Xdl-M6-5" value="h&lt;font size=&quot;1&quot; style=&quot;&quot;&gt;&lt;sub style=&quot;font-size: 25px;&quot;&gt;4&lt;/sub&gt;&lt;/font&gt;" style="rounded=0;whiteSpace=wrap;html=1;fontFamily=Times New Roman;fontSize=30;fontStyle=2;fillColor=#DAE8FC;strokeColor=#82b366;" parent="1" vertex="1">
          <mxGeometry x="510" y="122" width="50" height="100" as="geometry" />
        </mxCell>
        <mxCell id="CVISXVQ1rCeILexJUnb6-1" value="&lt;i&gt;O&lt;sub style=&quot;&quot;&gt;&lt;font style=&quot;font-size: 25px;&quot;&gt;2&lt;/font&gt;&lt;/sub&gt;&lt;/i&gt;" style="ellipse;whiteSpace=wrap;html=1;aspect=fixed;fontFamily=Times New Roman;fontSize=30;fillColor=#fdde98;strokeColor=#9673a6;" parent="1" vertex="1">
          <mxGeometry x="260" y="2" width="50" height="50" as="geometry" />
        </mxCell>
        <mxCell id="CVISXVQ1rCeILexJUnb6-2" value="&lt;i&gt;O&lt;sub style=&quot;&quot;&gt;&lt;font style=&quot;font-size: 25px;&quot;&gt;3&lt;/font&gt;&lt;/sub&gt;&lt;/i&gt;" style="ellipse;whiteSpace=wrap;html=1;aspect=fixed;fontFamily=Times New Roman;fontSize=30;fillColor=#fdde98;strokeColor=#9673a6;" parent="1" vertex="1">
          <mxGeometry x="390" y="2" width="50" height="50" as="geometry" />
        </mxCell>
        <mxCell id="CVISXVQ1rCeILexJUnb6-3" value="&lt;i&gt;O&lt;sub style=&quot;&quot;&gt;&lt;font style=&quot;font-size: 25px;&quot;&gt;4&lt;/font&gt;&lt;/sub&gt;&lt;/i&gt;" style="ellipse;whiteSpace=wrap;html=1;aspect=fixed;fontFamily=Times New Roman;fontSize=30;fillColor=#fdde98;strokeColor=#9673a6;" parent="1" vertex="1">
          <mxGeometry x="510" y="2" width="50" height="50" as="geometry" />
        </mxCell>
        <mxCell id="CVISXVQ1rCeILexJUnb6-10" value="U" style="text;html=1;align=center;verticalAlign=middle;whiteSpace=wrap;rounded=0;fontFamily=Times New Roman;fontSize=20;fontStyle=2" parent="1" vertex="1">
          <mxGeometry x="230" y="252" width="60" height="30" as="geometry" />
        </mxCell>
        <mxCell id="CVISXVQ1rCeILexJUnb6-11" value="U" style="text;html=1;align=center;verticalAlign=middle;whiteSpace=wrap;rounded=0;fontFamily=Times New Roman;fontSize=20;fontStyle=2" parent="1" vertex="1">
          <mxGeometry x="360" y="252" width="60" height="30" as="geometry" />
        </mxCell>
        <mxCell id="CVISXVQ1rCeILexJUnb6-12" value="U" style="text;html=1;align=center;verticalAlign=middle;whiteSpace=wrap;rounded=0;fontFamily=Times New Roman;fontSize=20;fontStyle=2" parent="1" vertex="1">
          <mxGeometry x="480" y="252" width="60" height="30" as="geometry" />
        </mxCell>
        <mxCell id="CVISXVQ1rCeILexJUnb6-13" value="V" style="text;html=1;align=center;verticalAlign=middle;whiteSpace=wrap;rounded=0;fontFamily=Times New Roman;fontSize=20;fontStyle=2" parent="1" vertex="1">
          <mxGeometry x="230" y="72" width="60" height="30" as="geometry" />
        </mxCell>
        <mxCell id="CVISXVQ1rCeILexJUnb6-14" value="V" style="text;html=1;align=center;verticalAlign=middle;whiteSpace=wrap;rounded=0;fontFamily=Times New Roman;fontSize=20;fontStyle=2" parent="1" vertex="1">
          <mxGeometry x="360" y="72" width="60" height="30" as="geometry" />
        </mxCell>
        <mxCell id="CVISXVQ1rCeILexJUnb6-15" value="V" style="text;html=1;align=center;verticalAlign=middle;whiteSpace=wrap;rounded=0;fontFamily=Times New Roman;fontSize=20;fontStyle=2" parent="1" vertex="1">
          <mxGeometry x="480" y="72" width="60" height="30" as="geometry" />
        </mxCell>
        <mxCell id="4tN2Cmuot6W2d1qLA0dU-1" value="&lt;i&gt;&lt;span style=&quot;font-size: 30px;&quot;&gt;h&lt;/span&gt;&lt;sub style=&quot;&quot;&gt;&lt;font style=&quot;font-size: 25px;&quot;&gt;0&lt;/font&gt;&lt;/sub&gt;&lt;/i&gt;" style="ellipse;whiteSpace=wrap;html=1;aspect=fixed;fontFamily=Times New Roman;fontSize=30;fillColor=#b3c7e9;strokeColor=#6c8ebf;" parent="1" vertex="1">
          <mxGeometry y="147" width="50" height="50" as="geometry" />
        </mxCell>
        <mxCell id="aAdbXfe2Lb5s9WLA2R2w-2" style="edgeStyle=orthogonalEdgeStyle;rounded=0;orthogonalLoop=1;jettySize=auto;html=1;exitX=0.5;exitY=0;exitDx=0;exitDy=0;entryX=0.5;entryY=1;entryDx=0;entryDy=0;" edge="1" parent="1" source="aAdbXfe2Lb5s9WLA2R2w-3" target="aAdbXfe2Lb5s9WLA2R2w-13">
          <mxGeometry relative="1" as="geometry">
            <Array as="points">
              <mxPoint x="675" y="122" />
            </Array>
          </mxGeometry>
        </mxCell>
        <mxCell id="aAdbXfe2Lb5s9WLA2R2w-3" value="Self-Attention" style="rounded=0;whiteSpace=wrap;html=1;fontFamily=Times New Roman;fontSize=30;fontStyle=2;fillColor=#dae8fc;strokeColor=#82b366;" vertex="1" parent="1">
          <mxGeometry x="650" y="122" width="430" height="100" as="geometry" />
        </mxCell>
        <mxCell id="aAdbXfe2Lb5s9WLA2R2w-5" style="edgeStyle=orthogonalEdgeStyle;rounded=0;orthogonalLoop=1;jettySize=auto;html=1;exitX=0.5;exitY=0;exitDx=0;exitDy=0;entryX=0.058;entryY=1.03;entryDx=0;entryDy=0;entryPerimeter=0;" edge="1" parent="1" source="aAdbXfe2Lb5s9WLA2R2w-6" target="aAdbXfe2Lb5s9WLA2R2w-3">
          <mxGeometry relative="1" as="geometry" />
        </mxCell>
        <mxCell id="aAdbXfe2Lb5s9WLA2R2w-6" value="&lt;i&gt;x&lt;sub&gt;1&lt;/sub&gt;&lt;/i&gt;" style="ellipse;whiteSpace=wrap;html=1;aspect=fixed;fontFamily=Times New Roman;fontSize=30;fillColor=#b3c7e9;strokeColor=#6c8ebf;" vertex="1" parent="1">
          <mxGeometry x="650" y="292" width="50" height="50" as="geometry" />
        </mxCell>
        <mxCell id="aAdbXfe2Lb5s9WLA2R2w-7" style="edgeStyle=orthogonalEdgeStyle;rounded=0;orthogonalLoop=1;jettySize=auto;html=1;exitX=0.5;exitY=0;exitDx=0;exitDy=0;entryX=0.5;entryY=1;entryDx=0;entryDy=0;" edge="1" parent="1" source="aAdbXfe2Lb5s9WLA2R2w-8">
          <mxGeometry relative="1" as="geometry">
            <mxPoint x="805" y="222" as="targetPoint" />
          </mxGeometry>
        </mxCell>
        <mxCell id="aAdbXfe2Lb5s9WLA2R2w-8" value="&lt;i&gt;x&lt;span style=&quot;font-size: 20.8333px;&quot;&gt;&lt;sub&gt;2&lt;/sub&gt;&lt;/span&gt;&lt;/i&gt;" style="ellipse;whiteSpace=wrap;html=1;aspect=fixed;fontFamily=Times New Roman;fontSize=30;fillColor=#B3C7E9;strokeColor=#6c8ebf;" vertex="1" parent="1">
          <mxGeometry x="780" y="292" width="50" height="50" as="geometry" />
        </mxCell>
        <mxCell id="aAdbXfe2Lb5s9WLA2R2w-9" style="edgeStyle=orthogonalEdgeStyle;rounded=0;orthogonalLoop=1;jettySize=auto;html=1;exitX=0.5;exitY=0;exitDx=0;exitDy=0;entryX=0.5;entryY=1;entryDx=0;entryDy=0;" edge="1" parent="1" source="aAdbXfe2Lb5s9WLA2R2w-10">
          <mxGeometry relative="1" as="geometry">
            <mxPoint x="935" y="222" as="targetPoint" />
          </mxGeometry>
        </mxCell>
        <mxCell id="aAdbXfe2Lb5s9WLA2R2w-10" value="&lt;i&gt;x&lt;span style=&quot;font-size: 25px;&quot;&gt;&lt;sub&gt;3&lt;/sub&gt;&lt;/span&gt;&lt;/i&gt;" style="ellipse;whiteSpace=wrap;html=1;aspect=fixed;fontFamily=Times New Roman;fontSize=30;fillColor=#B3C7E9;strokeColor=#6c8ebf;" vertex="1" parent="1">
          <mxGeometry x="910" y="292" width="50" height="50" as="geometry" />
        </mxCell>
        <mxCell id="aAdbXfe2Lb5s9WLA2R2w-11" style="edgeStyle=orthogonalEdgeStyle;rounded=0;orthogonalLoop=1;jettySize=auto;html=1;exitX=0.5;exitY=0;exitDx=0;exitDy=0;entryX=0.5;entryY=1;entryDx=0;entryDy=0;" edge="1" parent="1" source="aAdbXfe2Lb5s9WLA2R2w-12">
          <mxGeometry relative="1" as="geometry">
            <mxPoint x="1055" y="222" as="targetPoint" />
          </mxGeometry>
        </mxCell>
        <mxCell id="aAdbXfe2Lb5s9WLA2R2w-12" value="&lt;i&gt;x&lt;span style=&quot;font-size: 25px;&quot;&gt;&lt;sub&gt;4&lt;/sub&gt;&lt;/span&gt;&lt;/i&gt;" style="ellipse;whiteSpace=wrap;html=1;aspect=fixed;fontFamily=Times New Roman;fontSize=30;fillColor=#B3C7E9;strokeColor=#6c8ebf;" vertex="1" parent="1">
          <mxGeometry x="1030" y="292" width="50" height="50" as="geometry" />
        </mxCell>
        <mxCell id="aAdbXfe2Lb5s9WLA2R2w-13" value="&lt;i&gt;O&lt;sub&gt;1&lt;/sub&gt;&lt;/i&gt;" style="ellipse;whiteSpace=wrap;html=1;aspect=fixed;fontFamily=Times New Roman;fontSize=30;fillColor=#fdde98;strokeColor=#9673a6;" vertex="1" parent="1">
          <mxGeometry x="650" y="2" width="50" height="50" as="geometry" />
        </mxCell>
        <mxCell id="aAdbXfe2Lb5s9WLA2R2w-17" style="edgeStyle=orthogonalEdgeStyle;rounded=0;orthogonalLoop=1;jettySize=auto;html=1;exitX=0.5;exitY=0;exitDx=0;exitDy=0;entryX=0.5;entryY=1;entryDx=0;entryDy=0;" edge="1" parent="1" target="aAdbXfe2Lb5s9WLA2R2w-24">
          <mxGeometry relative="1" as="geometry">
            <mxPoint x="805" y="122" as="sourcePoint" />
          </mxGeometry>
        </mxCell>
        <mxCell id="aAdbXfe2Lb5s9WLA2R2w-20" style="edgeStyle=orthogonalEdgeStyle;rounded=0;orthogonalLoop=1;jettySize=auto;html=1;exitX=0.5;exitY=0;exitDx=0;exitDy=0;" edge="1" parent="1" target="aAdbXfe2Lb5s9WLA2R2w-25">
          <mxGeometry relative="1" as="geometry">
            <mxPoint x="935" y="122" as="sourcePoint" />
          </mxGeometry>
        </mxCell>
        <mxCell id="aAdbXfe2Lb5s9WLA2R2w-22" style="edgeStyle=orthogonalEdgeStyle;rounded=0;orthogonalLoop=1;jettySize=auto;html=1;exitX=0.5;exitY=0;exitDx=0;exitDy=0;entryX=0.5;entryY=1;entryDx=0;entryDy=0;" edge="1" parent="1" target="aAdbXfe2Lb5s9WLA2R2w-26">
          <mxGeometry relative="1" as="geometry">
            <mxPoint x="1055" y="122" as="sourcePoint" />
          </mxGeometry>
        </mxCell>
        <mxCell id="aAdbXfe2Lb5s9WLA2R2w-24" value="&lt;i&gt;O&lt;sub style=&quot;&quot;&gt;&lt;font style=&quot;font-size: 25px;&quot;&gt;2&lt;/font&gt;&lt;/sub&gt;&lt;/i&gt;" style="ellipse;whiteSpace=wrap;html=1;aspect=fixed;fontFamily=Times New Roman;fontSize=30;fillColor=#fdde98;strokeColor=#9673a6;" vertex="1" parent="1">
          <mxGeometry x="780" y="2" width="50" height="50" as="geometry" />
        </mxCell>
        <mxCell id="aAdbXfe2Lb5s9WLA2R2w-25" value="&lt;i&gt;O&lt;sub style=&quot;&quot;&gt;&lt;font style=&quot;font-size: 25px;&quot;&gt;3&lt;/font&gt;&lt;/sub&gt;&lt;/i&gt;" style="ellipse;whiteSpace=wrap;html=1;aspect=fixed;fontFamily=Times New Roman;fontSize=30;fillColor=#fdde98;strokeColor=#9673a6;" vertex="1" parent="1">
          <mxGeometry x="910" y="2" width="50" height="50" as="geometry" />
        </mxCell>
        <mxCell id="aAdbXfe2Lb5s9WLA2R2w-26" value="&lt;i&gt;O&lt;sub style=&quot;&quot;&gt;&lt;font style=&quot;font-size: 25px;&quot;&gt;4&lt;/font&gt;&lt;/sub&gt;&lt;/i&gt;" style="ellipse;whiteSpace=wrap;html=1;aspect=fixed;fontFamily=Times New Roman;fontSize=30;fillColor=#fdde98;strokeColor=#9673a6;" vertex="1" parent="1">
          <mxGeometry x="1030" y="2" width="50" height="50" as="geometry" />
        </mxCell>
        <mxCell id="aAdbXfe2Lb5s9WLA2R2w-34" value="" style="endArrow=none;dashed=1;html=1;rounded=0;strokeWidth=2;" edge="1" parent="1">
          <mxGeometry width="50" height="50" relative="1" as="geometry">
            <mxPoint x="600" y="380" as="sourcePoint" />
            <mxPoint x="600" y="2" as="targetPoint" />
          </mxGeometry>
        </mxCell>
        <mxCell id="aAdbXfe2Lb5s9WLA2R2w-35" value="&lt;span style=&quot;font-style: normal;&quot;&gt;（a）&lt;/span&gt;" style="text;html=1;align=center;verticalAlign=middle;whiteSpace=wrap;rounded=0;fontFamily=Times New Roman;fontSize=20;fontStyle=2" vertex="1" parent="1">
          <mxGeometry x="310" y="360" width="60" height="30" as="geometry" />
        </mxCell>
        <mxCell id="aAdbXfe2Lb5s9WLA2R2w-36" value="&lt;span style=&quot;font-style: normal;&quot;&gt;（b）&lt;/span&gt;" style="text;html=1;align=center;verticalAlign=middle;whiteSpace=wrap;rounded=0;fontFamily=Times New Roman;fontSize=20;fontStyle=2" vertex="1" parent="1">
          <mxGeometry x="850" y="360" width="60" height="30" as="geometry" />
        </mxCell>
      </root>
    </mxGraphModel>
  </diagram>
</mxfile>
